<svg xmlns="http://www.w3.org/2000/svg" width="32" height="32" viewBox="0 0 8.467 8.467"><g fill="#586597" transform="matrix(.26458 0 0 .26458 48.154 -330.604)"><path fill-rule="evenodd" d="m -1237.8652,273.8457 c -0.8226,0 -1.5,0.6776 -1.5,1.5 0,0.50711 0.2581,0.9584 0.6484,1.23047 -0.4244,0.39817 -0.9699,0.7186 -1.5254,1.10938 -0.7424,0.52244 -1.4872,1.27129 -1.6074,2.5 l -1.5156,2.02148 v 0.24414 0 c 0,0 0,0.01 0,0.01 v 10.53125 l 1.5156,3.0332 c 0.1178,1.2334 0.8634,1.98426 1.6074,2.50781 0.7694,0.5414 1.5267,0.94233 1.957,1.61133 a 0.50011666,0.50004134 0 0 0 0.8399,0 c 0.4303,-0.669 1.1876,-1.06993 1.957,-1.61133 0.7405,-0.52102 1.4822,-1.26749 1.6055,-2.49023 l 1.5176,-2.5332 v -11.30469 l -1.5176,-2.02344 c -0.1215,-1.22626 -0.8638,-1.97423 -1.6055,-2.49609 -0.5554,-0.39078 -1.1009,-0.71121 -1.5254,-1.10938 0.3904,-0.27207 0.6485,-0.72336 0.6485,-1.23047 0,-0.8224 -0.6774,-1.5 -1.5,-1.5 z" color="#000" font-family="sans-serif" font-weight="400" overflow="visible" transform="translate(1071.867 979.655)" white-space="normal" style="line-height:normal;font-variant-ligatures:normal;font-variant-position:normal;font-variant-caps:normal;font-variant-numeric:normal;font-variant-alternates:normal;font-feature-settings:normal;text-indent:0;text-align:start;text-decoration-line:none;text-decoration-style:solid;text-decoration-color:#000;text-transform:none;text-orientation:mixed;shape-padding:0;isolation:auto;mix-blend-mode:normal"/><path fill="#fbd67e" fill-rule="evenodd" d="m -1237.8652,274.8457 c 0.2821,0 0.5,0.2179 0.5,0.5 0,0.2821 -0.2179,0.5 -0.5,0.5 -0.2821,0 -0.5,-0.2179 -0.5,-0.5 0,-0.2821 0.2179,-0.5 0.5,-0.5 z" color="#000" font-family="sans-serif" font-weight="400" overflow="visible" transform="translate(1071.867 979.655)" white-space="normal" style="line-height:normal;font-variant-ligatures:normal;font-variant-position:normal;font-variant-caps:normal;font-variant-numeric:normal;font-variant-alternates:normal;font-feature-settings:normal;text-indent:0;text-align:start;text-decoration-line:none;text-decoration-style:solid;text-decoration-color:#000;text-transform:none;text-orientation:mixed;shape-padding:0;isolation:auto;mix-blend-mode:normal"/><path fill="#ff9395" fill-rule="evenodd" d="m -1237.8652,276.97266 c 0.5749,0.6327 1.245,1.13885 1.8027,1.53125 0.5904,0.4154 0.9906,0.80007 1.1328,1.50976 l -1.2558,0.35742 h -3.3594 l -1.2559,-0.35742 c 0.1422,-0.70969 0.5424,-1.09436 1.1328,-1.50976 0.5577,-0.3924 1.2278,-0.89855 1.8028,-1.53125 z" color="#000" font-family="sans-serif" font-weight="400" overflow="visible" transform="translate(1071.867 979.655)" white-space="normal" style="line-height:normal;font-variant-ligatures:normal;font-variant-position:normal;font-variant-caps:normal;font-variant-numeric:normal;font-variant-alternates:normal;font-feature-settings:normal;text-indent:0;text-align:start;text-decoration-line:none;text-decoration-style:solid;text-decoration-color:#000;text-transform:none;text-orientation:mixed;shape-padding:0;isolation:auto;mix-blend-mode:normal"/><path fill="#b5dec7" fill-rule="evenodd" d="m -1241.1719,280.94922 1.1114,0.3164 -0.6993,1.7461 -1.4687,-0.65234 z" color="#000" font-family="sans-serif" font-weight="400" overflow="visible" transform="translate(1071.867 979.655)" white-space="normal" style="line-height:normal;font-variant-ligatures:normal;font-variant-position:normal;font-variant-caps:normal;font-variant-numeric:normal;font-variant-alternates:normal;font-feature-settings:normal;text-indent:0;text-align:start;text-decoration-line:none;text-decoration-style:solid;text-decoration-color:#000;text-transform:none;text-orientation:mixed;shape-padding:0;isolation:auto;mix-blend-mode:normal"/><path fill="#bcf3d3" fill-rule="evenodd" d="m -1234.5586,280.94922 1.0586,1.41016 -1.4707,0.65234 -0.6992,-1.7461 z" color="#000" font-family="sans-serif" font-weight="400" overflow="visible" transform="translate(1071.867 979.655)" white-space="normal" style="line-height:normal;font-variant-ligatures:normal;font-variant-position:normal;font-variant-caps:normal;font-variant-numeric:normal;font-variant-alternates:normal;font-feature-settings:normal;text-indent:0;text-align:start;text-decoration-line:none;text-decoration-style:solid;text-decoration-color:#000;text-transform:none;text-orientation:mixed;shape-padding:0;isolation:auto;mix-blend-mode:normal"/><path fill="#b5e3d1" fill-rule="evenodd" d="m -1239.0254,281.37305 h 2.3203 l 0.6992,1.75 h -3.7187 z" color="#000" font-family="sans-serif" font-weight="400" overflow="visible" transform="translate(1071.867 979.655)" white-space="normal" style="line-height:normal;font-variant-ligatures:normal;font-variant-position:normal;font-variant-caps:normal;font-variant-numeric:normal;font-variant-alternates:normal;font-feature-settings:normal;text-indent:0;text-align:start;text-decoration-line:none;text-decoration-style:solid;text-decoration-color:#000;text-transform:none;text-orientation:mixed;shape-padding:0;isolation:auto;mix-blend-mode:normal"/><path fill="#fbd67e" fill-rule="evenodd" d="M-1242.127 283.49805l1.4063.625h2.1777c-.04.16137-.034.1619-.09.35937-.174.6116-.4347 1.34001-.6563 1.69141-.2254.35777-.5749.68176-.9589 1.0039-.4693-.44952-.9016-.90184-1.1817-1.44531-.2292-.4449-.4888-1.33769-.666-2.08789-.019-.0803-.014-.0698-.031-.14648zM-1233.6055 283.5c-.017.0767-.012.0661-.031.14648-.1772.7502-.4368 1.643-.666 2.0879-.2799.54308-.7128.99414-1.1817 1.44335-.3835-.32183-.7318-.64649-.957-1.0039-.2216-.3514-.4803-1.07981-.6543-1.69141-.056-.19739-.049-.19805-.09-.35937h2.1757z" color="#000" font-family="sans-serif" font-weight="400" overflow="visible" transform="translate(1071.867 979.655)" white-space="normal" style="line-height:normal;font-variant-ligatures:normal;font-variant-position:normal;font-variant-caps:normal;font-variant-numeric:normal;font-variant-alternates:normal;font-feature-settings:normal;text-indent:0;text-align:start;text-decoration-line:none;text-decoration-style:solid;text-decoration-color:#000;text-transform:none;text-orientation:mixed;shape-padding:0;isolation:auto;mix-blend-mode:normal"/><path fill="#fbb490" fill-rule="evenodd" d="M-1237.8652 285.36133c.1558.4799.3343.96197.5761 1.3457.2935.4656.6765.83198 1.0762 1.16992-.6083.56912-1.2237 1.20259-1.6035 2.08789-.019.044-.032.0965-.049.14258-.018-.0467-.03-.0999-.049-.14453-.3794-.88432-.9955-1.5173-1.6035-2.08594.3997-.33794.7828-.70432 1.0762-1.16992.2419-.38373.4204-.8658.5762-1.3457zM-1233.3652 286.08203v2.94336c-.3925-.47355-.8716-.85297-1.336-1.21094.4779-.46124.9461-.95929 1.2871-1.62109.017-.0338.032-.076.049-.11133zM-1242.3652 286.08594c.016.034.03.0749.047.10742.3414.66254.8086 1.16142 1.2872 1.62305-.4638.35745-.9422.7362-1.334 1.20898z" color="#000" font-family="sans-serif" font-weight="400" overflow="visible" transform="translate(1071.867 979.655)" white-space="normal" style="line-height:normal;font-variant-ligatures:normal;font-variant-position:normal;font-variant-caps:normal;font-variant-numeric:normal;font-variant-alternates:normal;font-feature-settings:normal;text-indent:0;text-align:start;text-decoration-line:none;text-decoration-style:solid;text-decoration-color:#000;text-transform:none;text-orientation:mixed;shape-padding:0;isolation:auto;mix-blend-mode:normal"/><path fill="#fbd67e" fill-rule="evenodd" d="M-1235.4219 288.51367c.014.011.029.0242.043.0352.6706.5164 1.2654 1.00904 1.5723 1.58984.1665.3153.3102 1.03623.373 1.64063.029.27906.022.31328.031.50781l-2.3008.83594h-1.6192c.01-.24856 0-.3209.039-.71094.065-.7446.2064-1.63694.3848-2.05273.3087-.71957.8583-1.27131 1.4765-1.84571zM-1240.3086 288.51562c.6173.57367 1.1663 1.12505 1.4746 1.84376.1784.41579.3195 1.30813.3848 2.05273.034.39004.029.46238.039.71094h-1.6171l-2.3008-.83594c.01-.17018 0-.22875.031-.50781.063-.6044.2065-1.32533.3731-1.64063.3068-.5808.9017-1.07344 1.5722-1.58984.014-.0107.029-.0225.043-.0332z" color="#000" font-family="sans-serif" font-weight="400" overflow="visible" transform="translate(1071.867 979.655)" white-space="normal" style="line-height:normal;font-variant-ligatures:normal;font-variant-position:normal;font-variant-caps:normal;font-variant-numeric:normal;font-variant-alternates:normal;font-feature-settings:normal;text-indent:0;text-align:start;text-decoration-line:none;text-decoration-style:solid;text-decoration-color:#000;text-transform:none;text-orientation:mixed;shape-padding:0;isolation:auto;mix-blend-mode:normal"/><path fill="#bcf3d3" fill-rule="evenodd" d="m -1233.4434,293.36523 -1.2617,2.10157 -1.3515,0.50781 0.8144,-1.95508 z" color="#000" font-family="sans-serif" font-weight="400" overflow="visible" transform="translate(1071.867 979.655)" white-space="normal" style="line-height:normal;font-variant-ligatures:normal;font-variant-position:normal;font-variant-caps:normal;font-variant-numeric:normal;font-variant-alternates:normal;font-feature-settings:normal;text-indent:0;text-align:start;text-decoration-line:none;text-decoration-style:solid;text-decoration-color:#000;text-transform:none;text-orientation:mixed;shape-padding:0;isolation:auto;mix-blend-mode:normal"/><path fill="#b5dec7" fill-rule="evenodd" d="m -1242.0098,293.4668 1.5176,0.55078 0.7832,1.88086 -1.3008,-0.4336 z" color="#000" font-family="sans-serif" font-weight="400" overflow="visible" transform="translate(1071.867 979.655)" white-space="normal" style="line-height:normal;font-variant-ligatures:normal;font-variant-position:normal;font-variant-caps:normal;font-variant-numeric:normal;font-variant-alternates:normal;font-feature-settings:normal;text-indent:0;text-align:start;text-decoration-line:none;text-decoration-style:solid;text-decoration-color:#000;text-transform:none;text-orientation:mixed;shape-padding:0;isolation:auto;mix-blend-mode:normal"/><path fill="#b5e3d1" fill-rule="evenodd" d="m -1239.3672,294.12305 h 2.9981 l -0.834,2 h -1.3301 z" color="#000" font-family="sans-serif" font-weight="400" overflow="visible" transform="translate(1071.867 979.655)" white-space="normal" style="line-height:normal;font-variant-ligatures:normal;font-variant-position:normal;font-variant-caps:normal;font-variant-numeric:normal;font-variant-alternates:normal;font-feature-settings:normal;text-indent:0;text-align:start;text-decoration-line:none;text-decoration-style:solid;text-decoration-color:#000;text-transform:none;text-orientation:mixed;shape-padding:0;isolation:auto;mix-blend-mode:normal"/><path fill="#ff9395" fill-rule="evenodd" d="m -1240.6758,296.62891 1.4785,0.49218 h 2.9219 l 1.1973,-0.44726 c -0.2044,0.42685 -0.5379,0.72689 -0.9844,1.04101 -0.5577,0.3925 -1.2278,0.89855 -1.8027,1.53125 -0.575,-0.6327 -1.2451,-1.13875 -1.8028,-1.53125 -0.4625,-0.32538 -0.8068,-0.63294 -1.0078,-1.08593 z" color="#000" font-family="sans-serif" font-weight="400" overflow="visible" transform="translate(1071.867 979.655)" white-space="normal" style="line-height:normal;font-variant-ligatures:normal;font-variant-position:normal;font-variant-caps:normal;font-variant-numeric:normal;font-variant-alternates:normal;font-feature-settings:normal;text-indent:0;text-align:start;text-decoration-line:none;text-decoration-style:solid;text-decoration-color:#000;text-transform:none;text-orientation:mixed;shape-padding:0;isolation:auto;mix-blend-mode:normal"/><path style="line-height:normal;font-variant-ligatures:normal;font-variant-position:normal;font-variant-caps:normal;font-variant-numeric:normal;font-variant-alternates:normal;font-feature-settings:normal;text-indent:0;text-align:start;text-decoration-line:none;text-decoration-style:solid;text-decoration-color:#000;text-transform:none;text-orientation:mixed;shape-padding:0;isolation:auto;mix-blend-mode:normal" d="M-175.49213 1266.7775a.50011663.50004131 0 1 0 0 1h1.48653a.50011663.50004131 0 1 0 0-1zM-173.51529 1270.0295a.50011663.50004131 0 0 0-.34381.1504l-.98841.9902a.50011663.50004131 0 1 0 .70713.707l.98841-.9902a.50011663.50004131 0 0 0-.36332-.8574zM-174.49981 1262.5296a.50011663.50004131 0 0 0-.3477.8574l.98841.9903a.50011663.50004131 0 1 0 .70713-.7071l-.98841-.9902a.50011663.50004131 0 0 0-.35943-.1504zM-157.99175 1266.7775a.50011663.50004131 0 1 0 0 1h1.48653a.50011663.50004131 0 1 0 0-1zM-158.49767 1270.0295a.50011663.50004131 0 0 0-.34771.8574l.98841.9902a.50011663.50004131 0 1 0 .70714-.707l-.98842-.9902a.50011663.50004131 0 0 0-.35942-.1504zM-157.51316 1262.5296a.50011663.50004131 0 0 0-.34381.1504l-.98841.9902a.50011663.50004131 0 1 0 .70713.7071l.98842-.9903a.50011663.50004131 0 0 0-.36333-.8574zM-166.00648 1251.0278a.50011666.50004134 0 0 0-.49226.5079v2.4863a.50011666.50004134 0 1 0 1.00013 0v-2.4863a.50011666.50004134 0 0 0-.50787-.5079z" color="#000" font-family="sans-serif" font-weight="400" overflow="visible" white-space="normal"/></g></svg>